<?xml version="1.0" encoding="UTF-8"?>
<svg id="Layer_1" data-name="Layer 1" xmlns="http://www.w3.org/2000/svg" viewBox="0 0 150 45">
  <defs>
    <style>
      .cls-1 {
        fill: #58595b;
      }
    </style>
  </defs>
  <path class="cls-1" d="m149.21,14.61c-.1,0-.2.02-.29.06-.02,0-.03.02-.05.02-18.51,8.33-44.73,13.53-73.83,13.53S19.77,23.03,1.27,14.71c-.1-.04-.2-.09-.29-.14-.06-.02-.12-.04-.18-.04-.44,0-.79.35-.79.79,0,.17.07.32.16.45.05.06.11.11.16.16,9.92,10.45,25.58,18.63,44.39,22.93v6.13h60.68v-6.13c18.79-4.29,34.44-12.46,44.36-22.9.01-.01.02-.03.04-.04.13-.14.22-.33.22-.53,0-.44-.35-.79-.79-.79Z"/>
  <g>
    <path class="cls-1" d="m31.74.94c.15.2.24.43.27.7,0,.1,0,.19-.01.29,0,.09-.02.18-.04.26-.02.18-.12.36-.32.52-.12.08-.27.17-.45.25-.1.03-.2.05-.31.06-.11,0-.23.02-.36.04-.1.03-.21.05-.32.05h-1.47l-5.21.02v.07l-.02,4.05h.44c.16,0,.35,0,.59-.02h1.78c.52,0,1.1,0,1.73.02h.15c.18,0,.37,0,.56.01.19,0,.39.01.59.01.18.02.37.04.55.06.18.02.37.07.55.14.3.1.51.26.65.47.18.22.27.44.27.67v.29c0,.09-.02.19-.05.29-.02.13-.12.3-.32.5-.13.12-.29.19-.47.22-.08.03-.18.06-.29.09-.11.02-.22.05-.34.06-.12.02-.23.03-.34.04-.11,0-.23.01-.36.01h-1.15l-4.58.02-.07,5.76v.2c0,.08,0,.16-.01.24,0,.07-.02.15-.04.24-.03.08-.06.17-.09.26-.02.09-.05.18-.09.26-.12.23-.22.39-.32.47-.18.13-.41.22-.67.27-.45.1-.87.05-1.27-.15-.08-.05-.16-.11-.24-.19-.07-.07-.14-.17-.19-.29-.03-.07-.05-.12-.05-.15l-.07-.15c-.05-.08-.08-.17-.1-.26-.02-.09-.03-.18-.05-.26,0-.08,0-.17-.01-.25,0-.08-.02-.17-.04-.25-.02-.13-.02-.26,0-.4v-.4l.02-1.94.02-3.58c.02-.53.02-1.07.02-1.61v-1.69c-.02-.6-.02-1.13-.01-1.59,0-.46.03-.97.06-1.51v-.12c.02-.18.02-.35.02-.51s.02-.32.05-.48c.03-.36.12-.69.25-.97.12-.28.28-.48.5-.6.25-.15.51-.22.8-.22.13,0,.24,0,.32.02v-.02h1.25c.17,0,.35,0,.55-.01.2,0,.46-.01.8-.01,1.33-.02,2.64-.02,3.94,0h.12c.18.02.37.02.56.02s.39,0,.59.02c.18,0,.37.02.55.06.18.04.37.1.55.16.28.08.5.22.65.42Z"/>
    <path class="cls-1" d="m38.07.79c1.11-.41,2.12-.6,3.03-.55.91.05,1.71.28,2.43.68.71.41,1.32.95,1.83,1.63.51.68.92,1.44,1.23,2.28.25.63.44,1.29.57,1.99.13.7.21,1.39.24,2.07.02.69,0,1.36-.07,2.02-.07.66-.2,1.27-.36,1.84-.1.38-.22.73-.35,1.04-.13.31-.29.63-.47.94-.42.71-.95,1.29-1.61,1.74-.66.45-1.37.76-2.15.94-.53.13-1.08.19-1.64.19-.56,0-1.12-.08-1.67-.22-.55-.14-1.08-.35-1.58-.62-.51-.27-.97-.62-1.38-1.03-.51-.5-.94-1.07-1.27-1.73-.33-.65-.59-1.34-.77-2.06-.18-.72-.3-1.44-.35-2.17-.05-.73-.05-1.42,0-2.09.05-.61.17-1.27.36-1.96.19-.7.47-1.37.83-2.01.37-.65.81-1.23,1.33-1.75.52-.52,1.13-.91,1.83-1.18Zm5.83,10.63c.2-.78.28-1.65.25-2.63-.03-.98-.19-1.9-.47-2.76-.18-.53-.41-1-.69-1.4-.27-.41-.6-.72-.97-.93-.37-.21-.81-.32-1.31-.32s-1.05.15-1.67.45c-.37.18-.68.43-.93.74-.26.31-.47.67-.62,1.07-.16.4-.28.81-.37,1.24-.09.43-.15.84-.16,1.24-.03.43-.04.88-.02,1.35.02.47.07.94.16,1.42.09.47.22.92.39,1.34.17.42.39.8.67,1.13.43.5.93.84,1.51,1.03.57.19,1.14.22,1.71.09.91-.2,1.61-.8,2.09-1.81.2-.36.35-.78.45-1.24Z"/>
    <path class="cls-1" d="m53.84.79c1.11-.41,2.12-.6,3.03-.55.91.05,1.71.28,2.43.68.71.41,1.32.95,1.83,1.63.51.68.92,1.44,1.23,2.28.25.63.44,1.29.57,1.99.13.7.21,1.39.24,2.07.02.69,0,1.36-.07,2.02-.07.66-.2,1.27-.36,1.84-.1.38-.22.73-.35,1.04-.13.31-.29.63-.47.94-.42.71-.95,1.29-1.61,1.74-.66.45-1.37.76-2.15.94-.53.13-1.08.19-1.64.19-.56,0-1.12-.08-1.67-.22-.55-.14-1.08-.35-1.58-.62-.51-.27-.97-.62-1.38-1.03-.51-.5-.94-1.07-1.27-1.73-.33-.65-.59-1.34-.77-2.06-.18-.72-.3-1.44-.35-2.17-.05-.73-.05-1.42,0-2.09.05-.61.17-1.27.36-1.96.19-.7.47-1.37.83-2.01.37-.65.81-1.23,1.33-1.75.52-.52,1.13-.91,1.83-1.18Zm5.83,10.63c.2-.78.28-1.65.25-2.63-.03-.98-.19-1.9-.47-2.76-.18-.53-.41-1-.69-1.4-.27-.41-.6-.72-.97-.93-.37-.21-.81-.32-1.31-.32s-1.05.15-1.67.45c-.37.18-.68.43-.93.74-.26.31-.47.67-.62,1.07-.16.4-.28.81-.37,1.24-.09.43-.15.84-.16,1.24-.03.43-.04.88-.02,1.35.02.47.07.94.16,1.42.09.47.22.92.39,1.34.17.42.39.8.67,1.13.43.5.93.84,1.51,1.03.57.19,1.14.22,1.71.09.91-.2,1.61-.8,2.09-1.81.2-.36.35-.78.45-1.24Z"/>
    <path class="cls-1" d="m78.3,7.8c.03.55.03,1.11-.01,1.69-.04.58-.1,1.14-.19,1.69-.17.94-.47,1.86-.92,2.76s-1.1,1.66-1.97,2.28c-.9.66-1.92,1.11-3.06,1.35-1.15.24-2.28.38-3.41.43-.38.03-.77.05-1.16.04-.39,0-.77-.05-1.13-.14-.3-.05-.52-.14-.67-.27-.08-.05-.15-.12-.2-.2-.05-.08-.09-.17-.12-.25-.05-.08-.09-.17-.11-.26-.02-.09-.05-.19-.09-.29-.02-.08-.03-.16-.04-.24,0-.07-.01-.15-.01-.21V1.69c0-.1.02-.2.05-.3.03-.23.08-.42.15-.57.07-.2.16-.34.27-.42.1-.08.2-.14.3-.19.1-.04.19-.08.27-.11.1-.03.2-.04.31-.01.11.02.23,0,.36-.06l4.16.1c1.1.03,2.08.29,2.94.76.86.47,1.6,1.07,2.22,1.8.61.73,1.1,1.54,1.44,2.45.35.9.56,1.79.62,2.67Zm-4.63,4.72c.32-.5.55-1.07.7-1.71.15-.65.22-1.3.2-1.97-.02-.67-.11-1.32-.27-1.96-.17-.64-.4-1.2-.7-1.7-.23-.36-.53-.66-.9-.89-.37-.23-.77-.41-1.22-.53-.45-.12-.93-.21-1.43-.26-.51-.05-1-.07-1.48-.07.02.48.02.94.02,1.39v1.42c-.02.6-.02,1.18-.02,1.74v6.7c.51-.02,1.01-.05,1.48-.09.47-.04.93-.14,1.37-.29.44-.15.85-.36,1.22-.63.37-.27.72-.65,1.03-1.13Z"/>
    <path class="cls-1" d="m96.38,8.62c.48.31.89.68,1.23,1.1.34.42.61.94.81,1.55.22.68.33,1.36.34,2.05,0,.69-.12,1.32-.37,1.91-.26.59-.66,1.1-1.22,1.54-.56.44-1.28.75-2.18.93-.48.12-1.05.21-1.69.27-.65.07-1.23.1-1.74.1-.65.02-1.32.02-2.01.01-.69,0-1.36-.08-2.01-.21-.28-.08-.49-.23-.61-.43-.12-.21-.21-.44-.26-.71-.07-.15-.1-.3-.1-.45V2.18c0-.46.1-.82.29-1.08.19-.26.44-.45.76-.57.32-.12.67-.2,1.07-.22s.81-.04,1.25-.04c.33,0,.67,0,1.01-.01.34,0,.69,0,1.03.01.55.02,1.12.06,1.71.14.59.07,1.15.21,1.68.41.25.08.51.2.8.35.28.13.51.3.67.5.53.48.93,1.04,1.18,1.68.26.64.37,1.28.34,1.94-.03.65-.21,1.28-.54,1.87-.32.6-.8,1.08-1.43,1.46Zm-4.36,6.58c.51-.03,1.04-.09,1.57-.17.53-.08.9-.24,1.1-.47.22-.26.37-.57.46-.93.09-.36.12-.72.07-1.09-.04-.37-.15-.73-.32-1.07-.17-.34-.4-.61-.69-.81-.38-.3-.82-.49-1.32-.58-.5-.09-.99-.14-1.47-.14-.23,0-.44,0-.64.01-.19,0-.36.03-.5.07-.14.04-.25.12-.31.24-.07.12-.1.29-.1.52.03.43.03.86,0,1.29-.03.43-.05.84-.05,1.24,0,.23,0,.48-.01.76,0,.27.08.5.26.68.18.18.45.31.8.37.35.07.73.09,1.15.07Zm.5-11.92c-.51-.02-.94-.03-1.28-.04-.34,0-.61.02-.8.07-.19.06-.32.18-.4.37-.07.19-.1.48-.09.86,0,.31,0,.63-.01.93,0,.31-.01.61-.01.91,0,.33.11.58.32.73.22.16.49.25.81.29.32.03.66.03,1.02,0,.36-.03.67-.07.93-.12.6-.1,1.06-.3,1.38-.61.32-.31.51-.76.56-1.35.07-.74-.13-1.26-.59-1.55-.46-.29-1.08-.45-1.86-.48Z"/>
    <path class="cls-1" d="m104.85.79c1.11-.41,2.12-.6,3.03-.55.91.05,1.71.28,2.43.68.71.41,1.32.95,1.83,1.63.51.68.92,1.44,1.23,2.28.25.63.44,1.29.57,1.99.13.7.21,1.39.24,2.07.02.69,0,1.36-.07,2.02-.07.66-.2,1.27-.36,1.84-.1.38-.22.73-.35,1.04-.13.31-.29.63-.47.94-.42.71-.95,1.29-1.61,1.74-.66.45-1.37.76-2.15.94-.53.13-1.08.19-1.64.19-.56,0-1.12-.08-1.67-.22-.55-.14-1.08-.35-1.58-.62-.51-.27-.97-.62-1.38-1.03-.51-.5-.94-1.07-1.27-1.73-.33-.65-.59-1.34-.77-2.06-.18-.72-.3-1.44-.35-2.17-.05-.73-.05-1.42,0-2.09.05-.61.17-1.27.36-1.96.19-.7.47-1.37.83-2.01.37-.65.81-1.23,1.33-1.75.52-.52,1.13-.91,1.83-1.18Zm5.83,10.63c.2-.78.28-1.65.25-2.63-.03-.98-.19-1.9-.47-2.76-.18-.53-.41-1-.69-1.4-.27-.41-.6-.72-.97-.93-.37-.21-.81-.32-1.31-.32s-1.05.15-1.67.45c-.37.18-.68.43-.93.74-.26.31-.47.67-.62,1.07-.16.4-.28.81-.37,1.24-.09.43-.15.84-.16,1.24-.03.43-.04.88-.02,1.35.02.47.07.94.16,1.42.09.47.22.92.39,1.34.17.42.39.8.67,1.13.43.5.93.84,1.51,1.03.57.19,1.14.22,1.71.09.91-.2,1.61-.8,2.09-1.81.2-.36.35-.78.45-1.24Z"/>
    <path class="cls-1" d="m129.64,15.49c.18.33.26.62.24.87-.02.25-.05.46-.09.62-.05.18-.17.34-.36.46-.19.12-.4.22-.64.29-.3.08-.55.1-.75.05-.25-.05-.46-.13-.62-.25-.1-.08-.19-.16-.27-.24-.08-.07-.17-.15-.25-.21-.08-.08-.16-.16-.22-.22-.07-.07-.12-.13-.15-.2-.03-.07-.06-.11-.09-.14s-.05-.05-.06-.06l-3.31-4.77-3.29,4.77s-.04.04-.06.06-.06.07-.11.14c-.03.07-.08.13-.14.2-.06.07-.12.14-.19.22-.08.07-.17.14-.27.21-.1.07-.19.15-.27.24-.1.07-.2.12-.31.15-.11.03-.21.07-.31.1-.22.05-.45.03-.7-.05-.51-.12-.87-.36-1.07-.74-.1-.2-.14-.41-.12-.63.02-.22.07-.45.16-.68.09-.23.2-.46.32-.67.12-.21.25-.42.39-.62.07-.08.13-.16.19-.22.06-.07.12-.14.19-.22.22-.28.42-.57.62-.86.2-.29.41-.6.65-.93l2.32-3.35-3.41-4.92-.3-.42c-.07-.1-.13-.19-.2-.27-.07-.08-.13-.18-.2-.3-.07-.08-.13-.17-.2-.27-.07-.1-.12-.21-.17-.35-.05-.1-.1-.19-.14-.29-.04-.09-.08-.2-.11-.34-.05-.2-.07-.38-.05-.55.05-.21.16-.4.32-.55.07-.08.15-.15.24-.2.09-.05.18-.1.26-.15.17-.07.32-.12.45-.15.13-.03.27-.05.42-.05.3.02.58.12.85.32.33.22.63.48.9.79.12.18.23.35.35.51.12.16.24.32.37.48l.02.1c.41.55.79,1.07,1.13,1.58.34.51.72,1.04,1.13,1.6.07.08.12.17.17.25.05.08.11.17.17.25.07-.08.12-.17.17-.25.05-.08.11-.17.17-.25.38-.56.75-1.1,1.11-1.6.36-.5.73-1.03,1.13-1.58l.05-.1c.13-.17.26-.33.39-.48.12-.16.24-.33.36-.51.27-.31.56-.58.9-.79.25-.2.53-.31.85-.32.27,0,.55.07.85.2.2.12.35.23.45.35.2.15.32.33.37.55.02.17,0,.35-.05.55-.03.13-.07.24-.11.34-.04.09-.1.19-.19.29-.1.25-.21.46-.32.62-.07.12-.13.22-.2.3-.07.08-.12.17-.17.27l-.3.42-3.44,4.92,2.32,3.35,1.35,1.89c.15.25.3.49.45.72.15.23.3.48.45.74Z"/>
  </g>
</svg>